# xmcd
#
# Track frame offsets: 
#        150
#        17255
#        36541
#        52223
#        69123
#        84011
#        97458
#        110014
#        122855
#        139695
#        154560
#
# Disc length: 2302 seconds
#
# Revision: 1
# Processed by: cddbd v1.5.2PL0 Copyright (c) Steve Scherf et al.
# Submitted via: ExactAudioCopy v1.0b2
#
DISCID=9008fc0b
DTITLE=Buddy Whittington - Six String Svengali
DYEAR=2011
DGENRE=Blues Guitar
TTITLE0=Back When The Beano Was Boss
TTITLE1=Deadwood And Wire
TTITLE2=My World Revolves Around You
TTITLE3=Ain't Got The Scratch
TTITLE4=I Had To Go See Alice
TTITLE5=Fender Champ
TTITLE6=Six Strings Romance
TTITLE7=Texas Trios
TTITLE8=The Put On Song
TTITLE9=For Crystal Beach
TTITLE10=While We're Here
EXTD=
EXTT0=
EXTT1=
EXTT2=
EXTT3=
EXTT4=
EXTT5=
EXTT6=
EXTT7=
EXTT8=
EXTT9=
EXTT10=
PLAYORDER=
